# xmcd
#
# Track frame offsets:
#	183
#	13743
#	24620
#	33908
#	42543
#	55630
#	68233
#	79355
#	90268
#	99028
#	110988
#	125255
#	133388
#	139415
#	151398
#	163218
#	177323
#	191423
#	204553
#	214573
#
# Disc length: 3000 seconds
#
# Revision: 1
# Processed by: cddbd v1.4PL0 Copyright (c) Steve Scherf et al.
# Submitted via: audiograbber 1.81.02
#
DISCID=1b0bb614
DTITLE=Al Jolson - Audio Archive Collectors Edition
DYEAR=1900
DGENRE=
TTITLE0=My Mammy
TTITLE1=There is a rainbow round my shoulder
TTITLE2=Ma blushing rosie
TTITLE3=I am sitting on top of the world
TTITLE4=Rock-a-bye your baby with a dixie melody
TTITLE5=I only have eyes for you
TTITLE6=California here I come
TTITLE7=Let me sing and I am happy
TTITLE8=Swanee
TTITLE9=When the red red Robin comes Bob Bob bobbing along
TTITLE10=Sonny boy
TTITLE11=For me and my gal
TTITLE12=Oh you beautiful doll
TTITLE13=You made me love you
TTITLE14=Give my regards to Broadway
TTITLE15=April showers
TTITLE16=Anniversary song
TTITLE17=After you have gone
TTITLE18=Toot, toot, tootsie
TTITLE19=Avalon
EXTD=
EXTT0=
EXTT1=
EXTT2=
EXTT3=
EXTT4=
EXTT5=
EXTT6=
EXTT7=
EXTT8=
EXTT9=
EXTT10=
EXTT11=
EXTT12=
EXTT13=
EXTT14=
EXTT15=
EXTT16=
EXTT17=
EXTT18=
EXTT19=
PLAYORDER=
